<svg width="15" height="27" viewBox="0 0 15 27" fill="none" xmlns="http://www.w3.org/2000/svg">
<path d="M13.543 14.875H9.73438V26.25H4.65625V14.875H0.542969V10.1523H4.65625V6.59766C4.65625 5.24349 4.91016 4.09245 5.41797 3.14453C5.92578 2.19661 6.63672 1.48568 7.55078 1.01172C8.4987 0.503906 9.58203 0.25 10.8008 0.25C11.3424 0.25 11.918 0.283854 12.5273 0.351562C13.1367 0.385417 13.6107 0.436198 13.9492 0.503906L14.457 0.554688V4.56641H12.4258C11.4779 4.56641 10.7839 4.82031 10.3438 5.32812C9.9375 5.80208 9.73438 6.39453 9.73438 7.10547V10.1523H14.2539L13.543 14.875Z" fill="white"/>
</svg>
