<svg width="32" height="20" viewBox="0 0 32 20" fill="none" xmlns="http://www.w3.org/2000/svg">
<path d="M31.0586 1.66406C30.9414 2.25 30.4727 3.20703 29.6523 4.53516C28.8711 5.86328 28.1484 7.03516 27.4844 8.05078C26.8203 9.02734 26.4688 9.53516 26.4297 9.57422C26.1953 9.92578 26.0781 10.1797 26.0781 10.3359C26.0781 10.4922 26.1953 10.7656 26.4297 11.1562C26.4297 11.1562 26.5469 11.293 26.7812 11.5664C27.0547 11.8398 27.3672 12.1523 27.7188 12.5039C28.0703 12.8555 28.4609 13.2656 28.8906 13.7344C29.3203 14.2031 29.7109 14.6719 30.0625 15.1406C30.4531 15.5703 30.7852 16.0195 31.0586 16.4883C31.3711 16.957 31.5859 17.3477 31.7031 17.6602C31.9766 18.6367 31.5859 19.125 30.5312 19.125H27.0742C26.8008 19.125 26.5664 19.0859 26.3711 19.0078C26.1758 18.9297 25.9609 18.793 25.7266 18.5977C25.4922 18.4023 25.2773 18.1875 25.082 17.9531C24.8867 17.7188 24.5938 17.3867 24.2031 16.957C23.8125 16.5273 23.4219 16.1172 23.0312 15.7266C21.4688 14.2422 20.3164 13.5 19.5742 13.5C19.1055 13.5 18.832 13.6367 18.7539 13.9102C18.6758 14.1836 18.6367 14.9648 18.6367 16.2539C18.6758 16.8789 18.6953 17.3867 18.6953 17.7773C18.6953 18.2461 18.5391 18.5977 18.2266 18.832C17.9141 19.0273 17.2305 19.125 16.1758 19.125C14.3398 19.125 12.4844 18.5781 10.6094 17.4844C8.73438 16.3906 7.09375 14.8281 5.6875 12.7969C4.35938 11 3.24609 9.22266 2.34766 7.46484C1.48828 5.66797 0.921875 4.30078 0.648438 3.36328C0.375 2.42578 0.238281 1.76172 0.238281 1.37109C0.238281 0.707031 0.628906 0.375 1.41016 0.375H4.86719C5.29688 0.375 5.60938 0.472656 5.80469 0.667969C6.03906 0.863281 6.23438 1.21484 6.39062 1.72266C7.21094 4.10547 8.20703 6.23438 9.37891 8.10938C10.5898 9.98438 11.5078 10.9219 12.1328 10.9219C12.3672 10.9219 12.5234 10.8438 12.6016 10.6875C12.7188 10.4922 12.7773 10.1406 12.7773 9.63281V4.53516C12.7383 3.98828 12.6406 3.51953 12.4844 3.12891C12.3281 2.73828 12.1719 2.46484 12.0156 2.30859C11.8594 2.11328 11.7031 1.91797 11.5469 1.72266C11.4297 1.52734 11.3711 1.35156 11.3711 1.19531C11.3711 1.03906 11.4102 0.902344 11.4883 0.785156C11.5664 0.667969 11.6641 0.570312 11.7812 0.492188C11.9375 0.414063 12.0938 0.375 12.25 0.375H17.6992C18.3242 0.375 18.6367 0.804687 18.6367 1.66406V8.46094C18.6367 9.125 18.8125 9.45703 19.1641 9.45703C19.5547 9.45703 20.1016 9.10547 20.8047 8.40234C21.5469 7.58203 22.2695 6.58594 22.9727 5.41406C23.6758 4.24219 24.2031 3.26562 24.5547 2.48438L25.082 1.37109C25.3555 0.707031 25.8438 0.375 26.5469 0.375H30.0039C30.9414 0.375 31.293 0.804687 31.0586 1.66406Z" fill="white"/>
</svg>
